<?xml version="1.0" encoding="utf-8"?>
<!-- Generator: Adobe Illustrator 27.5.0, SVG Export Plug-In . SVG Version: 6.00 Build 0)  -->
<svg version="1.1" xmlns="http://www.w3.org/2000/svg" xmlns:xlink="http://www.w3.org/1999/xlink" x="0px" y="0px"
	 viewBox="0 0 500 500" style="enable-background:new 0 0 500 500;" xml:space="preserve">
<g id="BACKGROUND">
	<rect style="fill:#FFFFFF;" width="500" height="500"/>
</g>
<g id="OBJECTS">
	<path style="fill:#282426;" d="M367.1,156.219c0.073-0.036,0.112-0.056,0.112-0.056s-7.08-4.888-17.826-5.046
		c5.33-2.322,16.798-5.444,17.738-9.67c1.096-4.789-4.023-13.631-9.112-21.165c-2.648-3.9-28.535-28.434-33.146-31.415
		c-4.642-2.979-6.437-4.1-8.288-2.471c-1.853,1.598-7.641,6.657-7.641,6.657l11.304,8.935l10.772,8.473
		c2.74,2.472,5.964,5.231,7.102,6.642c-1.584-0.656-5.728-2.483-8.144-3.552c-1.072-0.475-1.811-0.803-1.811-0.803l-0.404,0.061
		l-3.23,0.489l-10.392,6.538c-0.102-0.042-0.205-0.075-0.309-0.087c-0.14-0.015-0.334-0.027-0.556-0.037
		c-1.499-3.162-3.798-7.576-5.411-8.656c-1.869-1.252-22.445-6.044-35.939-8.334c-0.32-2.132-0.89-4.187-1.896-4.917
		c-0.16-1.374-0.298-2.567-0.311-2.647c-0.632-3.773-0.97-6.446-1.111-7.66c-0.06-1.502-0.24-4.91-0.696-7.241
		c0.028,0.021,0.045,0.034,0.045,0.034c0.202-2.642,1.31-1.991,2.737-4.368c0.18-0.3,0.372-0.607,0.577-0.912
		c3.134,2.561,6.706,5.037,8.377,5.633c2.921,1.043,5.415,0.18,7.616-0.685c2.201-0.864,3.675-2.466,3.826-3.197
		c0.151-0.731,0.016-2.488,0.016-2.488s3.103-4.665,5.351-12.994c0,0,1.023,0.299,1.327-1.602c0.305-1.901,0.326-5.414-1.256-9.815
		c-1.583-4.401-11.479-13.685-22.321-12.142c-10.842,1.543-14.249,7.962-15.883,11.904c-0.656,1.583-0.904,4.093-0.041,6.587
		c0.377,1.088,1.499,3.269,2.814,5.625l-6.082,2.75c-1.205-1.138-2.432-2.122-3.643-2.852c-2.007-1.21-4.535-1.117-6.44,0.247
		c-5.759,4.122-18.257,13.163-27.142,20.54c0,0-8.345,5.238-18.603,18c-3.599,4.477-4.318,8.207-5.554,9.09
		c-1.064,0.761-6.396,7.809-6.433,14.691c-1.292-0.191-2.316-0.39-2.948-0.6c-4.416-1.463-5.967-13.214-12.224-15.287
		c-6.257-2.073-41.392-0.003-47.552,2.514c-2.326,0.95-0.667,4.949,8.241,10.638c5.534,3.534,21.527,12.436,36.587,20.25
		l-7.208,13.466c-5.138-1.629-10.659-2.346-16.362-1.942c-2.317,0.164-4.578,0.508-6.773,1.011l-11.675-7.325
		c-1.648-1.034-3.823-0.125-4.245,1.773l-3.477,15.621c-10.136,9.079-15.967,22.738-14.392,37.444
		c2.501,23.345,23.414,40.778,46.831,39.085c19.99-1.445,35.88-16.064,39.805-34.757l6.951,0.674
		c-0.32,3.637-0.604,7.262-0.545,8.094c0.126,1.788-5.293,12.806-5.293,12.806l112.092-1.532c0,0,2.814-4.318,2.246-7.457
		c-0.687-3.798-3.718-10.394-3.504-16.354c0.308-8.61,2.328-14.02,5.313-18.588l0.259,0.005c-1.64,5.151-2.361,10.688-1.956,16.409
		c1.753,24.761,23.71,43.27,48.615,40.552c22.137-2.416,39.181-21.432,39.111-43.701C395.031,178.242,383.301,162.537,367.1,156.219
		z M191.558,156.619l-3.177-5.716c4.324,2.177,8.171,4.103,11.209,5.621l-3.205,12.81l-10.069,4.944
		c-3.056-4.999-7.069-9.322-11.776-12.726L191.558,156.619z M171.546,147.247l7.037,3.385l-1.649,5.728l-7.124,2.219
		c-1.255-0.684-2.545-1.308-3.868-1.869L171.546,147.247z M148.825,227.64c-15.22,0.031-28.306-11.481-30.235-26.578
		c-1.332-10.425,2.714-20.15,9.863-26.584l5.689,2.577c-1.505,1.104-2.898,2.358-4.148,3.75c-1.571,1.879-2.882,3.961-3.899,6.185
		c-0.973,2.245-1.615,4.624-1.921,7.045c-0.247,2.431-0.139,4.876,0.264,7.27c0.477,2.382,1.258,4.698,2.389,6.837
		c1.167,2.114,2.584,4.082,4.278,5.78c1.732,1.659,3.668,3.077,5.757,4.202c2.123,1.066,4.376,1.822,6.677,2.251
		c2.314,0.395,4.658,0.383,6.941,0.114c-2.305-0.053-4.575-0.333-6.753-0.941c-2.161-0.659-4.232-1.543-6.119-2.729
		c-1.871-1.209-3.57-2.645-5.046-4.278c-1.432-1.673-2.65-3.505-3.596-5.47c-0.912-1.984-1.497-4.087-1.877-6.216
		c-0.288-2.149-0.316-4.324-0.033-6.461c0.346-2.124,0.893-4.215,1.779-6.179c0.917-1.945,2.088-3.761,3.48-5.398
		c1.469-1.654,3.155-3.107,5.015-4.309c0.008-0.001,0.015-0.001,0.023-0.002l5.091,2.306c-7.622,2.976-12.531,11.092-10.803,19.825
		c1.555,7.854,8.48,13.739,16.481,14.031c7.812,0.285,14.357-4.446,16.988-11.064l13.207,1.28
		C174.922,217.828,163.192,227.611,148.825,227.64z M205.203,174.328l-4.601,3.121l6.17-8.353L205.203,174.328z M235.234,116.02
		c-0.529,0.753-0.96,1.576-1.31,2.456c-2.259-2.792-3.73-4.598-3.73-4.598s2.067-1.768,4.395-3.671
		c4.826-3.491,12.533-8.504,17.455-10.929c0.363,1.322,0.834,3.018,1.322,4.7C246.451,106.979,237.991,112.098,235.234,116.02z
		 M351.401,227.639c-15.389,0.144-28.678-11.562-30.5-26.843c-0.796-6.674,0.615-13.049,3.622-18.45l7.18-2.629l0.857,0.856
		c-0.073,0.079-0.152,0.152-0.224,0.232c-1.571,1.879-2.882,3.961-3.899,6.185c-0.973,2.245-1.615,4.624-1.921,7.045
		c-0.247,2.431-0.138,4.876,0.264,7.27c0.477,2.382,1.258,4.698,2.389,6.837c1.167,2.114,2.584,4.082,4.278,5.78
		c1.732,1.659,3.668,3.077,5.757,4.202c2.123,1.066,4.376,1.822,6.677,2.251c2.314,0.395,4.658,0.383,6.941,0.114
		c-2.305-0.053-4.575-0.333-6.753-0.941c-2.161-0.659-4.232-1.543-6.119-2.729c-1.871-1.209-3.57-2.645-5.046-4.278
		c-1.432-1.673-2.65-3.505-3.596-5.47c-0.912-1.984-1.497-4.087-1.877-6.216c-0.288-2.149-0.316-4.324-0.033-6.461
		c0.346-2.124,0.893-4.215,1.779-6.179c0.932-1.976,2.125-3.819,3.547-5.476c0.003,0,0.004,0,0.008,0l3.075,3.07
		c-3.329,3.924-4.953,9.301-3.801,14.936c1.593,7.79,8.468,13.614,16.413,13.922c10.628,0.413,18.97-8.447,18.24-18.758
		c-0.67-9.47-8.747-16.63-18.166-16.262c-0.271-1.349-0.577-2.901-0.865-4.424c0.714-0.065,1.431-0.111,2.15-0.117
		c2.161,0.076,4.324,0.362,6.417,0.983c2.078,0.66,4.064,1.605,5.921,2.789c1.825,1.23,3.487,2.709,4.946,4.391
		c1.44,1.701,2.608,3.626,3.565,5.672c0.909,2.07,1.507,4.277,1.885,6.552c-0.054-2.298-0.371-4.621-1.088-6.857
		c-0.75-2.218-1.814-4.343-3.169-6.295c-1.409-1.909-3.085-3.627-4.972-5.109c-1.922-1.437-4.068-2.564-6.327-3.422
		c-2.277-0.821-4.681-1.263-7.107-1.401c-0.908-0.023-1.816,0.011-2.723,0.074c-0.292-1.662-0.511-3.073-0.565-3.827
		c-0.052-0.731,0.063-1.354,0.313-1.91c0.002-0.001,0.004-0.002,0.005-0.004c16.854-1.268,31.51,11.407,32.702,28.249
		C382.817,212.428,369.143,227.473,351.401,227.639z"/>
	<g>
		<path style="fill:#282426;" d="M145.384,400.551c7.922-4.445,17.15-4.372,24.717-0.619c-8.182-4.881-18.673-5.378-27.578-0.38
			c-13.25,7.436-17.963,24.205-10.527,37.455c7.28,12.972,23.503,17.753,36.613,10.972c-12.243,5.184-26.687,0.445-33.346-11.421
			C128.116,423.821,132.647,407.7,145.384,400.551z"/>
		<path style="fill:#282426;" d="M389.801,412.691c-3.865-23.774-26.27-39.913-50.044-36.049c-3.731,0.607-7.273,1.671-10.58,3.124
			l-7.453-13.605l-0.601,0.334l-6.697-11.591c2.376-1.084,5.234-2.079,8.71-2.928c8.837-2.156,23.421-2.08,27.385-1.242
			c4.887,1.033,11.303,4.081,13.353,4.587c2.05,0.506,6.311,0.053,6.311,0.053s-10.629-9.49-14.865-11.958
			c-4.236-2.468-15.914-4.312-25.44-4.295c-3.373,0.006-8.758,0.371-14.143,1.339l-8.137-20.606l-23.749-14.474l5.273,10.117
			l-3.386,1.881l2.506,4.338c-0.392-0.017-0.782-0.035-1.167-0.059c-2.352-0.147-1.117,0.119-2.751-0.366
			c0,0-0.108,0.135-0.28,0.352c-3.456-2.247-11.036-7.832-13.441-10.884c-3.105-3.948-7.524-6.718-9.05-7.401
			c-1.131-3.502-4.736-14.314-7.202-17.661c1.605-1.087,3.254-2.131,4.942-3.106c-1.066-2.522-2.125-4.794-3.122-6.237
			c-0.399-0.577-1.162-1.207-2.174-1.866c0.319-0.891,0.723-1.81,1.268-2.649c4.307,2.067,8.362,3.907,9.907,4.47
			c0,0,2.529-1.022,4.677-5.055c1.845-3.466,1.589-4.378,1.405-5.048l-1.416-0.012l-2.822-1.228c0,0,2.503-5.695,3.279-13.595
			c0,0,8.746,0.243,10.532,0.089c1.752-0.151,3.872-0.447,3.665-1.39c-0.272-1.238-14.883-7.366-16.051-8.466
			c-3.171-2.986-15.302-6.517-23.651-0.662c-1.285,0.901-2.312,1.865-3.132,2.865c-0.334-0.125-0.534-0.002-1.35,1.193
			c-0.582,0.852-0.889,1.945-0.977,3.096c-1.372,4.328-0.318,8.662-0.124,11.172c0.114,1.478,0.87,3.468,2.394,5.112l-3.679,2.742
			c-0.115-0.01-0.205-0.023-0.255-0.042c0.034,0.046,0.072,0.104,0.107,0.152l-0.11,0.082c-1.645-0.59-3.156-1.111-4.403-1.532
			c-2.082-0.703-4.371-0.104-5.843,1.527c-4.453,4.938-14.092,15.737-20.755,24.285c0,0,0,0,0,0l0,0c0,0-4.311,3.964-12.603,16.904
			c-2.909,4.539-3.205,8.092-4.27,9.04c-1.065,0.948-6.664,10.386-3.805,17.379c1.07,2.618,3.538,4.714,6.307,6.335
			c-6.767-1.694-23.538-6.931-26.611-7.067c-3.411-0.15-4.766-0.237-6.428-0.092c-1.118,0.098-18.935-2.854-30.998-4.01
			c-6.003-0.575-18.631,2.071-18.631,2.071c0.93,0.075,12.564,4.292,18.906,6.019c12.845,3.498,21.425,8.148,21.292,8.535
			c-0.095,0.276,3.468,3.136,7.217,6.049l-13.037-5.321c-0.823-0.336-1.732-0.37-2.589-0.096l-5.397,1.723
			c-1.318,0.421-2.322,1.508-2.77,2.843c-1.392,0.496-2.31,1.475-2.679,1.933c-0.414,0.512-0.737,3.213-0.684,3.87
			c0,0,1.322,1.089,1.525,1.015c0.203-0.074,0.364-2.071,1.242-1.952c0.165,0.022,0.339,0.034,0.514,0.041l0.201,3.577
			c0.102,1.809,1.21,3.341,2.798,3.867l46.426,15.388l3.021-0.704l1.538-2.918c3.9,2.213,8.205,4.852,10.733,6.854
			c1.92,1.521,6.703,3.456,11.674,5.209c0.373,1.057,0.445,2.238-0.234,3.388c-0.706,1.194-1.481,3.5-2.151,5.977
			c-1.113,1.262-2.998,4.023-1.385,6.168c-0.193,1.113-0.314,2.042-0.335,2.647l-8.317,2.117c-0.728-1.857-1.581-3.689-2.585-5.478
			c-11.788-21.004-38.371-28.476-59.375-16.688c-21.004,11.788-28.476,38.371-16.688,59.375
			c11.788,21.004,38.371,28.476,59.375,16.688c16.159-9.068,24.296-26.892,21.829-44.197l14.424-3.671
			c0.223,0.482,0.577,0.907,1.056,1.204l5.181,3.211c1.197,0.742,2.759,0.478,3.646-0.615l1.54-1.897
			c2.8,2.032,5.824,3.834,8.131,4.75c11.632,4.615,22.276-1.256,22.276-1.256c5.076-1.274,8.752-0.409,10.213-1.292
			c1.977-1.194,5-4.165,7.189-6.786c1.906,1.034,3.911,1.567,5.727,1.363c4.357-0.491,9.172-3.367,10.21-6.368
			c1.865-5.389,0.372-13.373-0.544-17.207c1.672-0.02,3.319-0.201,4.032-1.334c1.422-2.263,3.674-3.014,4.714-5.274
			c1.04-2.26,1.51-9.608,1.731-11.543c0.22-1.936,0.04-4.671,0.04-4.671l-1.443-0.966c2.974-1.353,6.862-3.47,8.659-5.381
			c0.758-0.807,1.651-1.611,2.705-2.399l6.639,11.49l-0.731,0.406l7.439,13.581c-13.753,9.202-21.648,25.859-18.82,43.259
			c3.865,23.774,26.27,39.913,50.044,36.049C377.526,458.87,393.666,436.464,389.801,412.691z M205.67,380.795
			c-3.131-1.234-9.178-7.599-15.349-10.78l0.848-1.608c5.938,3.011,14.766,7.516,14.807,7.703c0.281,1.294,0.549,3.334,0.752,5.089
			C206.312,381.043,205.951,380.906,205.67,380.795z M174.987,457.153c-18.173,10.199-41.172,3.734-51.371-14.438
			s-3.734-41.172,14.438-51.371c18.173-10.199,41.172-3.734,51.371,14.438c0.746,1.33,1.393,2.689,1.963,4.064l-1.337,0.34
			c-0.532-1.263-1.132-2.511-1.818-3.735c-9.829-17.514-31.995-23.744-49.51-13.915c-17.514,9.829-23.744,31.995-13.915,49.51
			c9.829,17.514,31.995,23.744,49.51,13.915c13.233-7.426,20.018-21.895,18.308-36.079l1.333-0.339
			C195.81,434.315,188.771,449.417,174.987,457.153z M146.23,424.878c0.344,5.519,5.096,9.714,10.615,9.37
			c4.469-0.278,8.068-3.448,9.094-7.575l24.471-6.228c1.476,13.204-4.888,26.623-17.204,33.534
			c-16.42,9.215-37.201,3.374-46.417-13.046c-9.215-16.42-3.374-37.202,13.046-46.417c16.42-9.215,37.202-3.374,46.417,13.046
			c0.587,1.046,1.112,2.111,1.578,3.189l-24.687,6.283c-1.949-1.867-4.635-2.953-7.542-2.772
			C150.082,414.607,145.887,419.359,146.23,424.878z M263.276,334.603c-4.914,1.908-11.08,4.492-15.662,6.68
			c-8.891-9.208-23.266-23.434-23.266-23.434s1.54-2.036,3.291-4.249c3.723-4.17,9.781-10.316,13.807-13.529
			c1.578,3.007,4.389,8.268,5.361,9.48c0.203,0.254,0.451,0.484,0.721,0.698c0.771,0.74,1.97,1.87,2.631,2.384l1.854,1.425
			c1.19,0.903,2.739,2.138,3.894,3.205c0.766,0.721,2.017,1.65,3.578,2.604c2.834,1.749,6.631,3.587,10.151,4.483
			c5.453,1.4,10.019,2.779,10.019,2.779s0.004-0.005,0.623-0.763c-0.255,0.318-0.474,0.592-0.625,0.78
			c-0.985,1.224-0.69,1.414-0.461,2.141c0.229,0.727,1.549,0.133,2.878,0.691c0.231,0.097,0.473,0.232,0.718,0.383
			C277.657,330.168,273.455,330.651,263.276,334.603z M280.146,406.734c-1.252,0.417-2.608,0.189-3.885-0.323
			c0.188-1.277,0.25-2.232,1.063-4.386c0.932-2.468,4.658-9.422,6.618-11.578c0.465,2.559,1.034,5.964,1.069,7.486
			C285.128,403.108,284.199,405.384,280.146,406.734z M329.907,396.897c-7.863,5.954-12.258,15.947-10.565,26.361
			c2.387,14.682,15.984,24.74,30.626,22.869c-13.279,0.668-25.219-8.739-27.402-22.169c-1.532-9.422,2.12-18.488,8.857-24.295
			l7.419,13.545c-1.624,1.905-2.544,4.414-2.376,7.11c0.344,5.519,5.096,9.714,10.615,9.37c5.519-0.344,9.714-5.096,9.37-10.615
			c-0.344-5.519-5.096-9.714-10.615-9.37c-0.083,0.005-0.162,0.02-0.244,0.028l-7.75-14.148c2.054-0.92,4.258-1.595,6.585-1.973
			c8.966-1.458,17.609,1.779,23.428,7.9c-6.011-7.392-15.694-11.458-25.773-9.82c-1.936,0.315-3.789,0.827-5.547,1.508l-2.757-5.033
			c2.366-0.972,4.874-1.7,7.507-2.128c18.585-3.021,36.101,9.596,39.122,28.181s-9.596,36.101-28.181,39.122
			c-18.585,3.021-36.101-9.596-39.122-28.181c-2.163-13.308,3.694-26.066,14.017-33.348L329.907,396.897z M352.809,456.931
			c-20.569,3.344-39.954-10.62-43.298-31.189c-2.418-14.873,4.217-29.123,15.851-37.141l0.659,1.203
			c-11.142,7.742-17.483,21.433-15.161,35.718c3.223,19.824,21.905,33.281,41.729,30.059c19.824-3.223,33.281-21.905,30.059-41.729
			c-3.223-19.824-21.905-33.281-41.729-30.059c-2.895,0.471-5.649,1.28-8.24,2.365l-0.661-1.206
			c2.727-1.154,5.629-2.012,8.682-2.508c20.569-3.344,39.954,10.62,43.297,31.189C387.341,434.203,373.378,453.588,352.809,456.931z
			"/>
	</g>
</g>
</svg>
